<?xml version="1.0" encoding="UTF-8" standalone="no"?>
<!DOCTYPE svg PUBLIC "-//W3C//DTD SVG 1.1//EN" "http://www.w3.org/Graphics/SVG/1.1/DTD/svg11.dtd">
<svg width="100%" height="100%" viewBox="0 0 640 342" version="1.1" xmlns="http://www.w3.org/2000/svg" xmlns:xlink="http://www.w3.org/1999/xlink" xml:space="preserve" xmlns:serif="http://www.serif.com/" style="fill-rule:evenodd;clip-rule:evenodd;">
    <g transform="matrix(1,0,0,1,-188.322,-124.803)">
        <g transform="matrix(0.629023,0,0,0.629023,71.6008,207.028)">
            <text x="415.273px" y="220.456px" style="font-family:'AppleColorEmoji', 'Apple Color Emoji';font-size:288px;">🐳💨</text>
        </g>
        <g transform="matrix(1,0,0,1,77.0543,200.281)">
            <text x="106.293px" y="152.614px" style="font-family:'Courier';font-size:36px;">{JSON}</text>
        </g>
        <g transform="matrix(0.132695,0,0,0.132695,295.668,431.992)">
            <g transform="matrix(1,0,0,1,-256,-256)">
                <path d="M512,50C512,22.404 489.596,0 462,0L50,0C22.404,0 0,22.404 0,50L0,462C0,489.596 22.404,512 50,512L462,512C489.596,512 512,489.596 512,462L512,50Z" style="fill:rgb(49,120,198);"/>
                <path d="M512,50C512,22.404 489.596,0 462,0L50,0C22.404,0 0,22.404 0,50L0,462C0,489.596 22.404,512 50,512L462,512C489.596,512 512,489.596 512,462L512,50Z" style="fill:rgb(49,120,198);"/>
                <path d="M316.939,407.424L316.939,457.485C325.077,461.657 334.702,464.785 345.814,466.871C356.926,468.957 368.637,470 380.949,470C392.948,470 404.346,468.853 415.145,466.558C425.944,464.264 435.413,460.483 443.551,455.216C451.689,449.95 458.132,443.066 462.879,434.566C467.626,426.066 470,415.559 470,403.044C470,393.97 468.644,386.018 465.931,379.187C463.218,372.356 459.306,366.281 454.193,360.962C449.081,355.643 442.951,350.871 435.804,346.647C428.657,342.423 420.597,338.434 411.624,334.68C405.051,331.968 399.156,329.335 393.939,326.78C388.722,324.224 384.288,321.617 380.636,318.958C376.984,316.298 374.167,313.482 372.185,310.51C370.203,307.537 369.211,304.174 369.211,300.419C369.211,296.978 370.098,293.875 371.872,291.111C373.646,288.347 376.15,285.975 379.384,283.993C382.619,282.012 386.583,280.473 391.278,279.378C395.974,278.283 401.19,277.736 406.929,277.736C411.102,277.736 415.51,278.049 420.153,278.674C424.796,279.3 429.465,280.265 434.161,281.568C438.856,282.872 443.42,284.515 447.855,286.496C452.289,288.478 456.384,290.772 460.14,293.38L460.14,246.604C452.524,243.684 444.203,241.52 435.178,240.112C426.153,238.704 415.797,238 404.112,238C392.217,238 380.949,239.278 370.307,241.833C359.665,244.388 350.301,248.377 342.214,253.8C334.128,259.224 327.738,266.133 323.043,274.529C318.348,282.924 316,292.962 316,304.643C316,319.557 320.304,332.281 328.912,342.815C337.519,353.348 350.587,362.265 368.116,369.566C375.002,372.382 381.419,375.145 387.366,377.857C393.313,380.569 398.452,383.385 402.781,386.305C407.111,389.225 410.528,392.406 413.033,395.848C415.537,399.289 416.789,403.2 416.789,407.581C416.789,410.814 416.006,413.812 414.441,416.576C412.876,419.34 410.502,421.738 407.32,423.772C404.138,425.806 400.173,427.396 395.426,428.543C390.678,429.691 385.123,430.264 378.758,430.264C367.907,430.264 357.161,428.361 346.518,424.554C335.876,420.748 326.016,415.038 316.939,407.424ZM232.78,284.082L297,284.082L297,243L118,243L118,284.082L181.906,284.082L181.906,467L232.78,467L232.78,284.082Z" style="fill:white;"/>
            </g>
        </g>
        <g transform="matrix(0.425824,0,0,0.425824,250.047,259.403)">
            <g transform="matrix(1,0,0,1,-104,-64)">
                <clipPath id="_clip1">
                    <rect x="0" y="0" width="208" height="128"/>
                </clipPath>
                <g clip-path="url(#_clip1)">
                    <rect x="5" y="5" width="198" height="118" style="fill:none;stroke:black;stroke-width:10px;"/>
                    <path d="M30,98L30,30L50,30L70,55L90,30L110,30L110,98L90,98L90,59L70,84L50,59L50,98L30,98ZM155,98L125,65L145,65L145,30L165,30L165,65L185,65L155,98Z" style="fill-rule:nonzero;"/>
                </g>
            </g>
        </g>
        <g transform="matrix(0.41418,0,0,0.41418,296.345,166.221)">
            <g transform="matrix(1,0,0,1,-100,-100)">
                <g id="esrszalajy62" transform="matrix(1,0,0,1,14.2324,18.33)">
                    <g id="esrszalajy63" transform="matrix(1,0,0,1,95.31,81.67)">
                        <circle cx="0" cy="0" r="81.67" style="fill:rgb(245,245,245);"/>
                    </g>
                    <path id="esrszalajy64" d="M139.75,33.48L139.75,160.4" style="fill:none;fill-rule:nonzero;stroke:black;stroke-width:6px;stroke-linecap:round;"/>
                </g>
                <g transform="matrix(1,0,0,1,14.2324,18.33)">
                    <g id="esrszalajy65_tr">
                        <g id="esrszalajy65">
                            <g id="esrszalajy66" transform="matrix(1,0,0,1,-9.53199,-17.6592)">
                                <path d="M12.14,107.09L101.07,55C101.07,55 114.37,64.74 120.67,80.14C124.476,89.667 126.238,99.888 125.84,110.14L28.63,144.73C28.63,144.73 17.86,136.8 14.63,129.3C11.4,121.8 12.14,107.09 12.14,107.09Z" style="fill:rgb(128,203,196);fill-rule:nonzero;stroke:black;stroke-width:5px;stroke-linejoin:round;"/>
                            </g>
                            <path id="esrszalajy67" d="M114.36,77.15L140.42,44.76" style="fill:none;fill-rule:nonzero;stroke:black;stroke-width:5px;"/>
                            <path id="esrszalajy68" d="M102.63,47.45L140.57,45.44" style="fill:none;fill-rule:nonzero;stroke:black;stroke-width:5px;"/>
                            <g id="esrszalajy69" transform="matrix(1,0,0,1,-9.57,-18.17)">
                                <path d="M55.8,134.93L37,92.54L51,84.25L70.12,129.51L55.8,134.93Z" style="fill:rgb(238,153,156);fill-rule:nonzero;stroke:black;stroke-width:4px;"/>
                            </g>
                            <g id="esrszalajy610" transform="matrix(1,0,0,1,-9.57,-18.17)">
                                <path d="M70.84,129.93L51,85.19L65.8,76.44L86,124.21L70.84,129.93Z" style="fill:rgb(238,153,156);fill-rule:nonzero;stroke:black;stroke-width:4px;"/>
                            </g>
                        </g>
                    </g>
                </g>
            </g>
        </g>
        <g transform="matrix(0.212721,0,0,0.212721,773.502,221.862)">
            <g transform="matrix(1,0,0,1,-256,-256)">
                <path d="M107.644,470.877L74.633,100.62L437.367,100.62L404.321,470.819L255.778,512L107.644,470.877Z" style="fill:rgb(228,77,38);fill-rule:nonzero;"/>
                <path d="M256,480.523L376.03,447.246L404.27,130.894L256,130.894L256,480.523Z" style="fill:rgb(241,101,41);fill-rule:nonzero;"/>
                <path d="M256,268.217L195.91,268.217L191.76,221.716L256,221.716L256,176.305L142.132,176.305L143.219,188.488L154.38,313.627L256,313.627L256,268.217Z" style="fill:rgb(235,235,235);fill-rule:nonzero;"/>
                <path d="M256,386.153L255.801,386.206L205.227,372.55L201.994,336.333L156.409,336.333L162.771,407.634L255.791,433.457L256,433.399L256,386.153Z" style="fill:rgb(235,235,235);fill-rule:nonzero;"/>
                <path d="M108.382,0L131.459,0L131.459,22.8L152.569,22.8L152.569,0L175.647,0L175.647,69.044L152.57,69.044L152.57,45.924L131.46,45.924L131.46,69.044L108.383,69.044L108.383,0L108.382,0Z" style="fill-rule:nonzero;"/>
                <path d="M205.995,22.896L185.678,22.896L185.678,0L249.398,0L249.398,22.896L229.073,22.896L229.073,69.044L205.995,69.044L205.995,22.896Z" style="fill-rule:nonzero;"/>
                <path d="M259.511,0L283.574,0L298.376,24.26L313.163,0L337.235,0L337.235,69.044L314.253,69.044L314.253,34.822L298.376,59.371L297.979,59.371L282.091,34.822L282.091,69.044L259.511,69.044L259.511,0Z" style="fill-rule:nonzero;"/>
                <path d="M348.72,0L371.804,0L371.804,46.222L404.257,46.222L404.257,69.044L348.72,69.044L348.72,0Z" style="fill-rule:nonzero;"/>
                <path d="M255.843,268.217L255.843,313.627L311.761,313.627L306.49,372.521L255.843,386.191L255.843,433.435L348.937,407.634L349.62,399.962L360.291,280.411L361.399,268.217L255.843,268.217Z" style="fill:white;fill-rule:nonzero;"/>
                <path d="M255.843,176.305L255.843,221.716L365.531,221.716L366.442,211.509L368.511,188.488L369.597,176.305L255.843,176.305Z" style="fill:white;fill-rule:nonzero;"/>
            </g>
        </g>
        <g transform="matrix(0.113531,0,0,0.113531,772.419,368.36)">
            <g transform="matrix(1,0,0,1,-315,-315)">
                <rect x="0" y="0" width="630" height="630" style="fill:rgb(247,223,30);"/>
                <path d="M423.2,492.19C435.89,512.91 452.4,528.14 481.6,528.14C506.13,528.14 521.8,515.88 521.8,498.94C521.8,478.64 505.7,471.45 478.7,459.64L463.9,453.29C421.18,435.09 392.8,412.29 392.8,364.09C392.8,319.69 426.63,285.89 479.5,285.89C517.14,285.89 544.2,298.99 563.7,333.29L517.6,362.89C507.45,344.69 496.5,337.52 479.5,337.52C462.16,337.52 451.17,348.52 451.17,362.89C451.17,380.65 462.17,387.84 487.57,398.84L502.37,405.18C552.67,426.75 581.07,448.74 581.07,498.18C581.07,551.48 539.2,580.68 482.97,580.68C427.99,580.68 392.47,554.48 375.09,520.14L423.2,492.19ZM214.07,497.32C223.37,513.82 231.83,527.77 252.17,527.77C271.62,527.77 283.89,520.16 283.89,490.57L283.89,289.27L343.09,289.27L343.09,491.37C343.09,552.67 307.15,580.57 254.69,580.57C207.29,580.57 179.84,556.04 165.88,526.495L214.07,497.32Z" style="fill-rule:nonzero;"/>
            </g>
        </g>
    </g>
</svg>
